<svg id="Layer_1" data-name="Layer 1" xmlns="http://www.w3.org/2000/svg" viewBox="0 0 18.04 18.21"><defs><style>.cls-1{isolation:isolate;}.cls-2{fill:#26262d;}</style></defs><g class="cls-1"><path class="cls-2" d="M-245.52,8.5c1-.36,1.79-.71,2.51-1a15.79,15.79,0,0,0,1.9-1,8.27,8.27,0,0,0,1.43-1.15,8,8,0,0,0,1.14-1.45,14,14,0,0,0,1-1.91c.33-.72.67-1.57,1-2.54.36,1,.71,1.82,1,2.54a15.26,15.26,0,0,0,1,1.91,8.5,8.5,0,0,0,1.14,1.45,7.91,7.91,0,0,0,1.43,1.15,16.41,16.41,0,0,0,1.89,1c.72.32,1.55.67,2.51,1-1,.37-1.79.72-2.51,1a15,15,0,0,0-1.89,1,7.91,7.91,0,0,0-1.43,1.15,8.5,8.5,0,0,0-1.14,1.45,15.26,15.26,0,0,0-1,1.91c-.32.72-.67,1.57-1,2.54-.38-1-.72-1.82-1-2.54a15.26,15.26,0,0,0-1-1.91,8,8,0,0,0-1.14-1.45,8.27,8.27,0,0,0-1.43-1.15,15.79,15.79,0,0,0-1.9-1C-243.73,9.21-244.56,8.86-245.52,8.5Z" transform="translate(245.52 0.6)"/></g></svg>