<svg id="star-svgrepo-3" xmlns="http://www.w3.org/2000/svg" width="127.745" height="127.745" viewBox="0 0 127.745 127.745">
  <g id="Group_174" data-name="Group 174" transform="translate(61.255 0)">
    <g id="Group_168" data-name="Group 168">
      <g id="Group_164" data-name="Group 164" transform="translate(1.296 16.97)">
        <path id="Path_585" data-name="Path 585" d="M58.13,27.645a1.322,1.322,0,0,1-1.321-1.321v-9.59a1.321,1.321,0,0,1,2.643,0v9.59A1.322,1.322,0,0,1,58.13,27.645Z" transform="translate(-56.809 -15.412)" fill="#fd604e"/>
      </g>
      <g id="Group_165" data-name="Group 165" transform="translate(1.296 33.083)">
        <path id="Path_586" data-name="Path 586" d="M58.13,48.3a1.322,1.322,0,0,1-1.321-1.321V31.367a1.321,1.321,0,1,1,2.643,0V46.974A1.321,1.321,0,0,1,58.13,48.3Z" transform="translate(-56.809 -30.046)" fill="#fd604e"/>
      </g>
      <g id="Group_166" data-name="Group 166" transform="translate(1.296 7.631)">
        <path id="Path_587" data-name="Path 587" d="M58.13,13.659a1.322,1.322,0,0,1-1.321-1.321V8.252a1.321,1.321,0,0,1,2.643,0v4.085A1.322,1.322,0,0,1,58.13,13.659Z" transform="translate(-56.809 -6.931)" fill="#fd604e"/>
      </g>
      <g id="Group_167" data-name="Group 167">
        <circle id="Ellipse_77" data-name="Ellipse 77" cx="2.617" cy="2.617" r="2.617" fill="#fd604e"/>
      </g>
    </g>
    <g id="Group_173" data-name="Group 173" transform="translate(0 76.413)">
      <g id="Group_169" data-name="Group 169" transform="translate(1.296 22.13)">
        <path id="Path_588" data-name="Path 588" d="M58.13,101.73a1.322,1.322,0,0,1-1.321-1.321V90.819a1.321,1.321,0,1,1,2.643,0v9.589A1.322,1.322,0,0,1,58.13,101.73Z" transform="translate(-56.809 -89.498)" fill="#fd604e"/>
      </g>
      <g id="Group_170" data-name="Group 170" transform="translate(1.296)">
        <path id="Path_589" data-name="Path 589" d="M58.13,87.648a1.322,1.322,0,0,1-1.321-1.321V70.72a1.321,1.321,0,0,1,2.643,0V86.326A1.322,1.322,0,0,1,58.13,87.648Z" transform="translate(-56.809 -69.399)" fill="#fd604e"/>
      </g>
      <g id="Group_171" data-name="Group 171" transform="translate(1.296 36.973)">
        <path id="Path_590" data-name="Path 590" d="M58.13,109.706a1.322,1.322,0,0,1-1.321-1.321V104.3a1.321,1.321,0,0,1,2.643,0v4.085A1.322,1.322,0,0,1,58.13,109.706Z" transform="translate(-56.809 -102.978)" fill="#fd604e"/>
      </g>
      <g id="Group_172" data-name="Group 172" transform="translate(0 46.097)">
        <circle id="Ellipse_78" data-name="Ellipse 78" cx="2.617" cy="2.617" r="2.617" fill="#fd604e"/>
      </g>
    </g>
  </g>
  <g id="Group_185" data-name="Group 185" transform="translate(37.814 4.663)">
    <g id="Group_179" data-name="Group 179">
      <g id="Group_175" data-name="Group 175" transform="translate(7.294 15.776)">
        <path id="Path_591" data-name="Path 591" d="M45.958,30.066a1.32,1.32,0,0,1-1.22-.816l-3.67-8.86a1.321,1.321,0,1,1,2.44-1.012l3.67,8.859a1.321,1.321,0,0,1-.715,1.726A1.284,1.284,0,0,1,45.958,30.066Z" transform="translate(-40.967 -18.563)" fill="#fd604e"/>
      </g>
      <g id="Group_176" data-name="Group 176" transform="translate(13.46 30.664)">
        <path id="Path_592" data-name="Path 592" d="M53.86,49.145a1.32,1.32,0,0,1-1.22-.816L46.668,33.911a1.321,1.321,0,1,1,2.44-1.011l5.973,14.417a1.323,1.323,0,0,1-1.221,1.828Z" transform="translate(-46.567 -32.084)" fill="#fd604e"/>
      </g>
      <g id="Group_177" data-name="Group 177" transform="translate(3.721 7.15)">
        <path id="Path_593" data-name="Path 593" d="M40.606,17.145a1.32,1.32,0,0,1-1.22-.816l-1.562-3.774a1.321,1.321,0,1,1,2.44-1.011l1.562,3.774a1.321,1.321,0,0,1-.715,1.726A1.347,1.347,0,0,1,40.606,17.145Z" transform="translate(-37.722 -10.729)" fill="#fd604e"/>
      </g>
      <g id="Group_178" data-name="Group 178">
        <circle id="Ellipse_79" data-name="Ellipse 79" cx="2.617" cy="2.617" r="2.617" fill="#fd604e"/>
      </g>
    </g>
    <g id="Group_184" data-name="Group 184" transform="translate(30.042 70.696)">
      <g id="Group_180" data-name="Group 180" transform="translate(8.469 20.445)">
        <path id="Path_594" data-name="Path 594" d="M74.31,98.512a1.32,1.32,0,0,1-1.22-.816l-3.67-8.859a1.321,1.321,0,1,1,2.44-1.012l3.67,8.86a1.321,1.321,0,0,1-.715,1.726A1.346,1.346,0,0,1,74.31,98.512Z" transform="translate(-69.319 -87.01)" fill="#fd604e"/>
      </g>
      <g id="Group_181" data-name="Group 181">
        <path id="Path_595" data-name="Path 595" d="M68.92,85.5a1.32,1.32,0,0,1-1.22-.816L61.728,70.268a1.321,1.321,0,1,1,2.44-1.011L70.14,83.675a1.321,1.321,0,0,1-.715,1.726A1.342,1.342,0,0,1,68.92,85.5Z" transform="translate(-61.627 -68.442)" fill="#fd604e"/>
      </g>
      <g id="Group_182" data-name="Group 182" transform="translate(14.149 34.157)">
        <path id="Path_596" data-name="Path 596" d="M77.362,105.88a1.32,1.32,0,0,1-1.22-.816l-1.563-3.773a1.321,1.321,0,1,1,2.44-1.012l1.564,3.773a1.321,1.321,0,0,1-.715,1.726A1.3,1.3,0,0,1,77.362,105.88Z" transform="translate(-74.477 -99.463)" fill="#fd604e"/>
      </g>
      <g id="Group_183" data-name="Group 183" transform="translate(16.84 42.488)">
        <circle id="Ellipse_80" data-name="Ellipse 80" cx="2.617" cy="2.617" r="2.617" fill="#fd604e"/>
      </g>
    </g>
  </g>
  <g id="Group_196" data-name="Group 196" transform="translate(17.941 17.941)">
    <g id="Group_190" data-name="Group 190">
      <g id="Group_186" data-name="Group 186" transform="translate(12.378 12.379)">
        <path id="Path_597" data-name="Path 597" d="M35.639,36.961a1.315,1.315,0,0,1-.935-.388l-6.78-6.781a1.321,1.321,0,0,1,1.869-1.869l6.78,6.781a1.322,1.322,0,0,1-.934,2.256Z" transform="translate(-27.536 -27.537)" fill="#fd604e"/>
      </g>
      <g id="Group_187" data-name="Group 187" transform="translate(23.772 23.774)">
        <path id="Path_598" data-name="Path 598" d="M50.24,51.563a1.315,1.315,0,0,1-.935-.388L38.272,40.141a1.321,1.321,0,0,1,1.869-1.869L51.174,49.307a1.322,1.322,0,0,1-.934,2.256Z" transform="translate(-37.884 -37.886)" fill="#fd604e"/>
      </g>
      <g id="Group_188" data-name="Group 188" transform="translate(5.775 5.776)">
        <path id="Path_599" data-name="Path 599" d="M25.749,27.072a1.317,1.317,0,0,1-.935-.388L21.927,23.8A1.321,1.321,0,0,1,23.8,21.928l2.888,2.888a1.322,1.322,0,0,1-.934,2.256Z" transform="translate(-21.539 -21.54)" fill="#fd604e"/>
      </g>
      <g id="Group_189" data-name="Group 189">
        <circle id="Ellipse_81" data-name="Ellipse 81" cx="2.617" cy="2.617" r="2.617" fill="#fd604e"/>
      </g>
    </g>
    <g id="Group_195" data-name="Group 195" transform="translate(54.412 54.412)">
      <g id="Group_191" data-name="Group 191" transform="translate(15.647 15.648)">
        <path id="Path_600" data-name="Path 600" d="M88.025,89.347a1.317,1.317,0,0,1-.935-.388l-6.78-6.78a1.321,1.321,0,1,1,1.869-1.869l6.78,6.78a1.322,1.322,0,0,1-.934,2.256Z" transform="translate(-79.922 -79.923)" fill="#fd604e"/>
      </g>
      <g id="Group_192" data-name="Group 192" transform="translate(0 0)">
        <path id="Path_601" data-name="Path 601" d="M78.068,79.39A1.317,1.317,0,0,1,77.133,79L66.1,67.967A1.321,1.321,0,0,1,67.967,66.1L79,77.133a1.322,1.322,0,0,1-.934,2.256Z" transform="translate(-65.711 -65.711)" fill="#fd604e"/>
      </g>
      <g id="Group_193" data-name="Group 193" transform="translate(26.143 26.144)">
        <path id="Path_602" data-name="Path 602" d="M93.664,94.987a1.317,1.317,0,0,1-.935-.388l-2.888-2.888a1.321,1.321,0,0,1,1.869-1.868L94.6,92.731a1.322,1.322,0,0,1-.934,2.256Z" transform="translate(-89.454 -89.455)" fill="#fd604e"/>
      </g>
      <g id="Group_194" data-name="Group 194" transform="translate(32.216 32.216)">
        <circle id="Ellipse_82" data-name="Ellipse 82" cx="2.617" cy="2.617" r="2.617" fill="#fd604e"/>
      </g>
    </g>
  </g>
  <g id="Group_207" data-name="Group 207" transform="translate(4.663 37.814)">
    <g id="Group_201" data-name="Group 201">
      <g id="Group_197" data-name="Group 197" transform="translate(15.776 7.295)">
        <path id="Path_603" data-name="Path 603" d="M28.745,47.279a1.321,1.321,0,0,1-.505-.1l-8.86-3.669a1.322,1.322,0,0,1,1.011-2.442l8.86,3.669a1.322,1.322,0,0,1-.505,2.542Z" transform="translate(-18.563 -40.969)" fill="#fd604e"/>
      </g>
      <g id="Group_198" data-name="Group 198" transform="translate(30.663 13.461)">
        <path id="Path_604" data-name="Path 604" d="M47.823,55.183a1.321,1.321,0,0,1-.505-.1L32.9,49.11a1.322,1.322,0,0,1,1.011-2.442L48.328,52.64a1.322,1.322,0,0,1-.505,2.542Z" transform="translate(-32.083 -46.568)" fill="#fd604e"/>
      </g>
      <g id="Group_199" data-name="Group 199" transform="translate(7.148 3.722)">
        <path id="Path_605" data-name="Path 605" d="M15.822,41.928a1.321,1.321,0,0,1-.505-.1l-3.773-1.562a1.322,1.322,0,0,1,1.011-2.442l3.773,1.562a1.322,1.322,0,0,1-.505,2.542Z" transform="translate(-10.727 -37.723)" fill="#fd604e"/>
      </g>
      <g id="Group_200" data-name="Group 200">
        <circle id="Ellipse_83" data-name="Ellipse 83" cx="2.617" cy="2.617" r="2.617" fill="#fd604e"/>
      </g>
    </g>
    <g id="Group_206" data-name="Group 206" transform="translate(70.694 30.041)">
      <g id="Group_202" data-name="Group 202" transform="translate(20.446 8.471)">
        <path id="Path_606" data-name="Path 606" d="M97.189,75.631a1.321,1.321,0,0,1-.505-.1l-8.859-3.67a1.321,1.321,0,0,1,1.011-2.441l8.859,3.67a1.321,1.321,0,0,1-.505,2.541Z" transform="translate(-87.009 -69.32)" fill="#fd604e"/>
      </g>
      <g id="Group_203" data-name="Group 203">
        <path id="Path_607" data-name="Path 607" d="M84.18,70.242a1.321,1.321,0,0,1-.505-.1L69.256,64.169a1.322,1.322,0,0,1,1.011-2.442L84.685,67.7a1.322,1.322,0,0,1-.505,2.542Z" transform="translate(-68.44 -61.627)" fill="#fd604e"/>
      </g>
      <g id="Group_204" data-name="Group 204" transform="translate(34.158 14.148)">
        <path id="Path_608" data-name="Path 608" d="M104.559,78.683a1.3,1.3,0,0,1-.505-.1l-3.774-1.564a1.321,1.321,0,0,1,1.011-2.441l3.774,1.564a1.322,1.322,0,0,1-.505,2.542Z" transform="translate(-99.463 -74.477)" fill="#fd604e"/>
      </g>
      <g id="Group_205" data-name="Group 205" transform="translate(42.49 16.841)">
        <circle id="Ellipse_84" data-name="Ellipse 84" cx="2.617" cy="2.617" r="2.617" fill="#fd604e"/>
      </g>
    </g>
  </g>
  <g id="Group_218" data-name="Group 218" transform="translate(0 61.255)">
    <g id="Group_212" data-name="Group 212">
      <g id="Group_208" data-name="Group 208" transform="translate(16.969 1.297)">
        <path id="Path_609" data-name="Path 609" d="M26.323,59.453h-9.59a1.321,1.321,0,1,1,0-2.643h9.59a1.321,1.321,0,1,1,0,2.643Z" transform="translate(-15.411 -56.81)" fill="#fd604e"/>
      </g>
      <g id="Group_209" data-name="Group 209" transform="translate(33.083 1.297)">
        <path id="Path_610" data-name="Path 610" d="M46.974,59.453H31.367a1.321,1.321,0,1,1,0-2.643H46.974a1.321,1.321,0,1,1,0,2.643Z" transform="translate(-30.046 -56.81)" fill="#fd604e"/>
      </g>
      <g id="Group_210" data-name="Group 210" transform="translate(7.631 1.297)">
        <path id="Path_611" data-name="Path 611" d="M12.337,59.453H8.252a1.321,1.321,0,0,1,0-2.643h4.085a1.321,1.321,0,1,1,0,2.643Z" transform="translate(-6.931 -56.81)" fill="#fd604e"/>
      </g>
      <g id="Group_211" data-name="Group 211">
        <circle id="Ellipse_85" data-name="Ellipse 85" cx="2.617" cy="2.617" r="2.617" fill="#fd604e"/>
      </g>
    </g>
    <g id="Group_217" data-name="Group 217" transform="translate(76.413)">
      <g id="Group_213" data-name="Group 213" transform="translate(22.129 1.297)">
        <path id="Path_612" data-name="Path 612" d="M100.407,59.453H90.818a1.321,1.321,0,1,1,0-2.643h9.589a1.321,1.321,0,1,1,0,2.643Z" transform="translate(-89.497 -56.81)" fill="#fd604e"/>
      </g>
      <g id="Group_214" data-name="Group 214" transform="translate(0 1.297)">
        <path id="Path_613" data-name="Path 613" d="M86.326,59.453H70.72a1.321,1.321,0,0,1,0-2.643H86.327a1.321,1.321,0,1,1,0,2.643Z" transform="translate(-69.399 -56.81)" fill="#fd604e"/>
      </g>
      <g id="Group_215" data-name="Group 215" transform="translate(36.973 1.297)">
        <path id="Path_614" data-name="Path 614" d="M108.383,59.453H104.3a1.321,1.321,0,0,1,0-2.643h4.084a1.321,1.321,0,0,1,0,2.643Z" transform="translate(-102.978 -56.81)" fill="#fd604e"/>
      </g>
      <g id="Group_216" data-name="Group 216" transform="translate(46.097)">
        <circle id="Ellipse_86" data-name="Ellipse 86" cx="2.617" cy="2.617" r="2.617" fill="#fd604e"/>
      </g>
    </g>
  </g>
  <g id="Group_229" data-name="Group 229" transform="translate(4.663 37.814)">
    <g id="Group_223" data-name="Group 223" transform="translate(0 30.041)">
      <g id="Group_219" data-name="Group 219" transform="translate(15.776 8.47)">
        <path id="Path_615" data-name="Path 615" d="M19.884,75.631a1.322,1.322,0,0,1-.505-2.542l8.86-3.67a1.322,1.322,0,0,1,1.011,2.442l-8.86,3.67A1.347,1.347,0,0,1,19.884,75.631Z" transform="translate(-18.563 -69.32)" fill="#fd604e"/>
      </g>
      <g id="Group_220" data-name="Group 220" transform="translate(30.663)">
        <path id="Path_616" data-name="Path 616" d="M33.4,70.242A1.322,1.322,0,0,1,32.9,67.7l14.418-5.972a1.322,1.322,0,0,1,1.011,2.442L33.91,70.142A1.317,1.317,0,0,1,33.4,70.242Z" transform="translate(-32.083 -61.627)" fill="#fd604e"/>
      </g>
      <g id="Group_221" data-name="Group 221" transform="translate(7.149 14.149)">
        <path id="Path_617" data-name="Path 617" d="M12.049,78.683a1.322,1.322,0,0,1-.505-2.542l3.773-1.563a1.321,1.321,0,0,1,1.011,2.441l-3.773,1.564A1.3,1.3,0,0,1,12.049,78.683Z" transform="translate(-10.728 -74.477)" fill="#fd604e"/>
      </g>
      <g id="Group_222" data-name="Group 222" transform="translate(0 16.841)">
        <circle id="Ellipse_87" data-name="Ellipse 87" cx="2.617" cy="2.617" r="2.617" fill="#fd604e"/>
      </g>
    </g>
    <g id="Group_228" data-name="Group 228" transform="translate(70.695)">
      <g id="Group_224" data-name="Group 224" transform="translate(20.445 7.295)">
        <path id="Path_618" data-name="Path 618" d="M88.33,47.279a1.322,1.322,0,0,1-.505-2.542l8.859-3.669a1.322,1.322,0,0,1,1.011,2.442l-8.859,3.669A1.321,1.321,0,0,1,88.33,47.279Z" transform="translate(-87.009 -40.969)" fill="#fd604e"/>
      </g>
      <g id="Group_225" data-name="Group 225" transform="translate(0 13.461)">
        <path id="Path_619" data-name="Path 619" d="M69.762,55.183a1.322,1.322,0,0,1-.505-2.542l14.418-5.972a1.322,1.322,0,0,1,1.011,2.442L70.268,55.081A1.327,1.327,0,0,1,69.762,55.183Z" transform="translate(-68.441 -46.569)" fill="#fd604e"/>
      </g>
      <g id="Group_226" data-name="Group 226" transform="translate(34.157 3.723)">
        <path id="Path_620" data-name="Path 620" d="M100.784,41.928a1.322,1.322,0,0,1-.505-2.542l3.774-1.562a1.322,1.322,0,0,1,1.011,2.442l-3.774,1.562A1.342,1.342,0,0,1,100.784,41.928Z" transform="translate(-99.463 -37.724)" fill="#fd604e"/>
      </g>
      <g id="Group_227" data-name="Group 227" transform="translate(42.489)">
        <circle id="Ellipse_88" data-name="Ellipse 88" cx="2.617" cy="2.617" r="2.617" fill="#fd604e"/>
      </g>
    </g>
  </g>
  <g id="Group_240" data-name="Group 240" transform="translate(17.941 17.941)">
    <g id="Group_234" data-name="Group 234" transform="translate(0 54.412)">
      <g id="Group_230" data-name="Group 230" transform="translate(12.377 15.648)">
        <path id="Path_621" data-name="Path 621" d="M28.857,89.347a1.322,1.322,0,0,1-.935-2.256l6.78-6.78a1.321,1.321,0,0,1,1.869,1.869l-6.78,6.78A1.311,1.311,0,0,1,28.857,89.347Z" transform="translate(-27.535 -79.923)" fill="#fd604e"/>
      </g>
      <g id="Group_231" data-name="Group 231" transform="translate(23.772 0)">
        <path id="Path_622" data-name="Path 622" d="M39.206,79.39a1.322,1.322,0,0,1-.935-2.256L49.305,66.1a1.321,1.321,0,0,1,1.869,1.869L40.141,79A1.317,1.317,0,0,1,39.206,79.39Z" transform="translate(-37.884 -65.711)" fill="#fd604e"/>
      </g>
      <g id="Group_232" data-name="Group 232" transform="translate(5.775 26.144)">
        <path id="Path_623" data-name="Path 623" d="M22.861,94.987a1.322,1.322,0,0,1-.935-2.256l2.888-2.888a1.321,1.321,0,0,1,1.869,1.868L23.8,94.6A1.313,1.313,0,0,1,22.861,94.987Z" transform="translate(-21.539 -89.455)" fill="#fd604e"/>
      </g>
      <g id="Group_233" data-name="Group 233" transform="translate(0 32.216)">
        <circle id="Ellipse_89" data-name="Ellipse 89" cx="2.617" cy="2.617" r="2.617" fill="#fd604e"/>
      </g>
    </g>
    <g id="Group_239" data-name="Group 239" transform="translate(54.411)">
      <g id="Group_235" data-name="Group 235" transform="translate(15.648 12.378)">
        <path id="Path_624" data-name="Path 624" d="M81.244,36.961a1.322,1.322,0,0,1-.935-2.256l6.78-6.781a1.321,1.321,0,0,1,1.868,1.869l-6.78,6.781A1.313,1.313,0,0,1,81.244,36.961Z" transform="translate(-79.922 -27.536)" fill="#fd604e"/>
      </g>
      <g id="Group_236" data-name="Group 236" transform="translate(0 23.773)">
        <path id="Path_625" data-name="Path 625" d="M67.032,51.564a1.322,1.322,0,0,1-.935-2.256L77.132,38.273A1.321,1.321,0,1,1,79,40.141L67.967,51.176A1.322,1.322,0,0,1,67.032,51.564Z" transform="translate(-65.71 -37.885)" fill="#fd604e"/>
      </g>
      <g id="Group_237" data-name="Group 237" transform="translate(26.144 5.776)">
        <path id="Path_626" data-name="Path 626" d="M90.776,27.072a1.322,1.322,0,0,1-.935-2.256l2.888-2.888A1.321,1.321,0,0,1,94.6,23.8L91.71,26.684A1.316,1.316,0,0,1,90.776,27.072Z" transform="translate(-89.454 -21.54)" fill="#fd604e"/>
      </g>
      <g id="Group_238" data-name="Group 238" transform="translate(32.217)">
        <circle id="Ellipse_90" data-name="Ellipse 90" cx="2.617" cy="2.617" r="2.617" fill="#fd604e"/>
      </g>
    </g>
  </g>
  <g id="Group_251" data-name="Group 251" transform="translate(37.814 4.663)">
    <g id="Group_245" data-name="Group 245" transform="translate(0 70.696)">
      <g id="Group_241" data-name="Group 241" transform="translate(7.294 20.445)">
        <path id="Path_627" data-name="Path 627" d="M42.288,98.512a1.32,1.32,0,0,1-1.22-1.827l3.67-8.86a1.321,1.321,0,1,1,2.44,1.012L43.508,97.7A1.32,1.32,0,0,1,42.288,98.512Z" transform="translate(-40.967 -87.01)" fill="#fd604e"/>
      </g>
      <g id="Group_242" data-name="Group 242" transform="translate(13.461)">
        <path id="Path_628" data-name="Path 628" d="M47.889,85.5a1.32,1.32,0,0,1-1.22-1.827l5.972-14.418a1.321,1.321,0,1,1,2.44,1.011L49.109,84.686A1.321,1.321,0,0,1,47.889,85.5Z" transform="translate(-46.568 -68.441)" fill="#fd604e"/>
      </g>
      <g id="Group_243" data-name="Group 243" transform="translate(3.721 34.158)">
        <path id="Path_629" data-name="Path 629" d="M39.043,105.88a1.32,1.32,0,0,1-1.22-1.827l1.562-3.773a1.321,1.321,0,1,1,2.44,1.011l-1.562,3.773A1.32,1.32,0,0,1,39.043,105.88Z" transform="translate(-37.722 -99.464)" fill="#fd604e"/>
      </g>
      <g id="Group_244" data-name="Group 244" transform="translate(0 42.489)">
        <circle id="Ellipse_91" data-name="Ellipse 91" cx="2.617" cy="2.617" r="2.617" fill="#fd604e"/>
      </g>
    </g>
    <g id="Group_250" data-name="Group 250" transform="translate(30.042)">
      <g id="Group_246" data-name="Group 246" transform="translate(8.469 15.778)">
        <path id="Path_630" data-name="Path 630" d="M70.64,30.066a1.32,1.32,0,0,1-1.22-1.827l3.67-8.859a1.321,1.321,0,1,1,2.44,1.012l-3.67,8.86A1.322,1.322,0,0,1,70.64,30.066Z" transform="translate(-69.319 -18.565)" fill="#fd604e"/>
      </g>
      <g id="Group_247" data-name="Group 247" transform="translate(0 30.664)">
        <path id="Path_631" data-name="Path 631" d="M62.948,49.145a1.32,1.32,0,0,1-1.22-1.827L67.7,32.9a1.321,1.321,0,1,1,2.44,1.011L64.168,48.329A1.32,1.32,0,0,1,62.948,49.145Z" transform="translate(-61.627 -32.084)" fill="#fd604e"/>
      </g>
      <g id="Group_248" data-name="Group 248" transform="translate(14.149 7.151)">
        <path id="Path_632" data-name="Path 632" d="M75.8,17.145a1.32,1.32,0,0,1-1.22-1.827l1.563-3.774a1.321,1.321,0,1,1,2.44,1.012L77.018,16.33A1.321,1.321,0,0,1,75.8,17.145Z" transform="translate(-74.477 -10.729)" fill="#fd604e"/>
      </g>
      <g id="Group_249" data-name="Group 249" transform="translate(16.84)">
        <circle id="Ellipse_92" data-name="Ellipse 92" cx="2.617" cy="2.617" r="2.617" fill="#fd604e"/>
      </g>
    </g>
  </g>
</svg>
