<svg xmlns="http://www.w3.org/2000/svg" xmlns:xlink="http://www.w3.org/1999/xlink" width="61.048" height="13.896" viewBox="0 0 61.048 13.896">
  <defs>
    <clipPath id="clip-path">
      <rect id="Rectangle_68" data-name="Rectangle 68" width="61.048" height="13.896" transform="translate(0 0)" fill="none"/>
    </clipPath>
  </defs>
  <g id="Group_164" data-name="Group 164" transform="translate(0 0)" clip-path="url(#clip-path)">
    <path id="Path_585" data-name="Path 585" d="M7.075,12.386a5.7,5.7,0,0,1,5.311-5.311q.755-.052,1.509-.127-.755-.077-1.51-.128A5.705,5.705,0,0,1,7.074,1.508Q7.023.753,6.948,0q-.077.755-.127,1.509A5.7,5.7,0,0,1,1.509,6.821C1.006,6.856.5,6.9,0,6.948q.753.075,1.508.126A5.705,5.705,0,0,1,6.82,12.385q.052.756.128,1.511.075-.756.127-1.51"/>
    <path id="Path_586" data-name="Path 586" d="M30.652,12.386a5.7,5.7,0,0,1,5.311-5.311q.754-.052,1.509-.127-.754-.077-1.51-.128a5.705,5.705,0,0,1-5.311-5.312C30.616,1,30.575.5,30.524,0c-.05.5-.091,1.006-.126,1.509a5.705,5.705,0,0,1-5.312,5.312c-.5.035-1.007.076-1.509.127q.753.075,1.508.126A5.705,5.705,0,0,1,30.4,12.385q.052.756.127,1.511.077-.756.128-1.51"/>
    <path id="Path_587" data-name="Path 587" d="M54.228,12.386a5.7,5.7,0,0,1,5.311-5.311q.754-.052,1.509-.127-.755-.077-1.51-.128a5.705,5.705,0,0,1-5.311-5.312Q54.176.753,54.1,0c-.05.5-.091,1.006-.126,1.509a5.7,5.7,0,0,1-5.312,5.312c-.5.035-1.006.076-1.509.127q.753.075,1.508.126a5.705,5.705,0,0,1,5.312,5.311q.052.756.127,1.511.077-.756.128-1.51"/>
  </g>
</svg>
