<svg id="arrow" xmlns="http://www.w3.org/2000/svg" width="26.856" height="87.672" viewBox="0 0 26.856 87.672">
  <path id="Path_4" data-name="Path 4" d="M2279.836,8198.836H2278.3v-86.714h1.533Z" transform="translate(-2265.642 -8112.122)" fill="#26262d"/>
  <path id="Path_5" data-name="Path 5" d="M2014.749,8304.683a.958.958,0,0,1-.937-.766c-1.333-6.519-3.924-11.46-7.493-14.292a12.043,12.043,0,0,0-3.506-1.965,6.912,6.912,0,0,0-1.49-.364h.005l.137-1.911a11.949,11.949,0,0,1,5.917,2.64,18.979,18.979,0,0,1,4.669,5.467,32.943,32.943,0,0,1,3.637,10.041.958.958,0,0,1-.747,1.13A1.006,1.006,0,0,1,2014.749,8304.683Z" transform="translate(-2001.322 -8217.011)" fill="#26262d"/>
  <path id="Path_6" data-name="Path 6" d="M1999.974,8304.683a1.006,1.006,0,0,1-.193-.02.958.958,0,0,1-.747-1.13,32.949,32.949,0,0,1,3.637-10.041,18.984,18.984,0,0,1,4.67-5.467,11.949,11.949,0,0,1,5.917-2.64l.137,1.911h.005a6.909,6.909,0,0,0-1.49.364,12.04,12.04,0,0,0-3.506,1.965c-3.569,2.832-6.16,7.773-7.493,14.292A.958.958,0,0,1,1999.974,8304.683Z" transform="translate(-1986.545 -8217.012)" fill="#26262d"/>
</svg>
