<svg xmlns="http://www.w3.org/2000/svg" width="71.993" height="22.048" viewBox="0 0 71.993 22.048">
  <g id="arrow" transform="translate(71.997 -0.001) rotate(90)">
    <path id="Path_4" data-name="Path 4" d="M2279.56,8183.34h-1.26v-71.213h1.259Z" transform="translate(-2267.905 -8112.123)" fill="#fff"/>
    <path id="Path_5" data-name="Path 5" d="M2012.35,8301.23a.786.786,0,0,1-.77-.629c-1.095-5.353-3.223-9.411-6.154-11.737a9.866,9.866,0,0,0-2.879-1.613,5.735,5.735,0,0,0-1.224-.3h0l.112-1.57a9.823,9.823,0,0,1,4.86,2.169,15.559,15.559,0,0,1,3.835,4.488,27.04,27.04,0,0,1,2.987,8.246.786.786,0,0,1-.613.928A.816.816,0,0,1,2012.35,8301.23Z" transform="translate(-2001.322 -8229.233)" fill="#fff"/>
    <path id="Path_6" data-name="Path 6" d="M1999.8,8301.23a.791.791,0,0,1-.159-.016.785.785,0,0,1-.613-.929,27.064,27.064,0,0,1,2.987-8.246,15.57,15.57,0,0,1,3.835-4.488,9.829,9.829,0,0,1,4.86-2.169l.113,1.57h0a5.74,5.74,0,0,0-1.224.3,9.842,9.842,0,0,0-2.879,1.613c-2.931,2.326-5.059,6.385-6.154,11.737A.787.787,0,0,1,1999.8,8301.23Z" transform="translate(-1988.774 -8229.233)" fill="#fff"/>
  </g>
</svg>
