<svg xmlns="http://www.w3.org/2000/svg" width="72" height="22.055" viewBox="0 0 72 22.055">
  <g id="arrow" transform="translate(72) rotate(90)">
    <path id="Path_4" data-name="Path 4" d="M2279.562,8183.336H2278.3v-71.213h1.259Z" transform="translate(-2267.905 -8112.123)" fill="#26262d"/>
    <path id="Path_5" data-name="Path 5" d="M2012.349,8301.233a.787.787,0,0,1-.77-.629c-1.095-5.353-3.223-9.411-6.154-11.737a9.857,9.857,0,0,0-2.879-1.613,5.73,5.73,0,0,0-1.224-.3h0l.112-1.57a9.821,9.821,0,0,1,4.86,2.169,15.579,15.579,0,0,1,3.835,4.488,27.051,27.051,0,0,1,2.987,8.246.786.786,0,0,1-.613.929A.8.8,0,0,1,2012.349,8301.233Z" transform="translate(-2001.322 -8229.233)" fill="#26262d"/>
    <path id="Path_6" data-name="Path 6" d="M1999.8,8301.233a.8.8,0,0,1-.159-.016.786.786,0,0,1-.613-.929,27.057,27.057,0,0,1,2.987-8.246,15.576,15.576,0,0,1,3.835-4.488,9.82,9.82,0,0,1,4.86-2.169l.113,1.57h0a5.73,5.73,0,0,0-1.224.3,9.853,9.853,0,0,0-2.879,1.613c-2.931,2.326-5.059,6.385-6.154,11.737A.787.787,0,0,1,1999.8,8301.233Z" transform="translate(-1988.774 -8229.233)" fill="#26262d"/>
  </g>
</svg>
