<svg id="star-svgrepo-3" xmlns="http://www.w3.org/2000/svg" width="116.019" height="116.019" viewBox="0 0 116.019 116.019">
  <g id="Group_174" data-name="Group 174">
    <g id="Group_168" data-name="Group 168">
      <g id="Group_164" data-name="Group 164">
        <path id="Path_585" data-name="Path 585" d="M58.009,26.522a1.2,1.2,0,0,1-1.2-1.2v-8.71a1.2,1.2,0,0,1,2.4,0v8.71A1.2,1.2,0,0,1,58.009,26.522Z" fill="#fd604e"/>
      </g>
      <g id="Group_165" data-name="Group 165">
        <path id="Path_586" data-name="Path 586" d="M58.009,46.62a1.2,1.2,0,0,1-1.2-1.2V31.246a1.2,1.2,0,0,1,2.4,0V45.42A1.2,1.2,0,0,1,58.009,46.62Z" fill="#fd604e"/>
      </g>
      <g id="Group_166" data-name="Group 166">
        <path id="Path_587" data-name="Path 587" d="M58.009,13.041a1.2,1.2,0,0,1-1.2-1.2V8.131a1.2,1.2,0,0,1,2.4,0v3.71A1.2,1.2,0,0,1,58.009,13.041Z" fill="#fd604e"/>
      </g>
      <g id="Group_167" data-name="Group 167">
        <circle id="Ellipse_77" data-name="Ellipse 77" cx="2.377" cy="2.377" r="2.377" transform="translate(55.632 0)" fill="#fd604e"/>
      </g>
    </g>
    <g id="Group_173" data-name="Group 173">
      <g id="Group_169" data-name="Group 169">
        <path id="Path_588" data-name="Path 588" d="M58.009,100.607a1.2,1.2,0,0,1-1.2-1.2V90.7a1.2,1.2,0,0,1,2.4,0v8.709A1.2,1.2,0,0,1,58.009,100.607Z" fill="#fd604e"/>
      </g>
      <g id="Group_170" data-name="Group 170">
        <path id="Path_589" data-name="Path 589" d="M58.009,85.973a1.2,1.2,0,0,1-1.2-1.2V70.6a1.2,1.2,0,0,1,2.4,0V84.772A1.2,1.2,0,0,1,58.009,85.973Z" fill="#fd604e"/>
      </g>
      <g id="Group_171" data-name="Group 171">
        <path id="Path_590" data-name="Path 590" d="M58.009,109.088a1.2,1.2,0,0,1-1.2-1.2v-3.71a1.2,1.2,0,0,1,2.4,0v3.71A1.2,1.2,0,0,1,58.009,109.088Z" fill="#fd604e"/>
      </g>
      <g id="Group_172" data-name="Group 172">
        <circle id="Ellipse_78" data-name="Ellipse 78" cx="2.377" cy="2.377" r="2.377" transform="translate(55.632 111.265)" fill="#fd604e"/>
      </g>
    </g>
  </g>
  <g id="Group_185" data-name="Group 185">
    <g id="Group_179" data-name="Group 179">
      <g id="Group_175" data-name="Group 175">
        <path id="Path_591" data-name="Path 591" d="M45.5,29.01a1.2,1.2,0,0,1-1.108-.741l-3.333-8.047a1.2,1.2,0,1,1,2.216-.919l3.333,8.046a1.2,1.2,0,0,1-.649,1.568A1.166,1.166,0,0,1,45.5,29.01Z" fill="#fd604e"/>
      </g>
      <g id="Group_176" data-name="Group 176">
        <path id="Path_592" data-name="Path 592" d="M53.191,47.579a1.2,1.2,0,0,1-1.108-.741l-5.424-13.1a1.2,1.2,0,1,1,2.216-.918L54.3,45.919a1.2,1.2,0,0,1-1.109,1.66Z" fill="#fd604e"/>
      </g>
      <g id="Group_177" data-name="Group 177">
        <path id="Path_593" data-name="Path 593" d="M40.341,16.556a1.2,1.2,0,0,1-1.108-.741l-1.419-3.428a1.2,1.2,0,1,1,2.216-.918L41.449,14.9a1.2,1.2,0,0,1-.649,1.568A1.223,1.223,0,0,1,40.341,16.556Z" fill="#fd604e"/>
      </g>
      <g id="Group_178" data-name="Group 178">
        <circle id="Ellipse_79" data-name="Ellipse 79" cx="2.377" cy="2.377" r="2.377" transform="translate(34.343 4.235)" fill="#fd604e"/>
      </g>
    </g>
    <g id="Group_184" data-name="Group 184">
      <g id="Group_180" data-name="Group 180">
        <path id="Path_594" data-name="Path 594" d="M73.852,97.456a1.2,1.2,0,0,1-1.108-.741l-3.333-8.046a1.2,1.2,0,1,1,2.216-.919L74.96,95.8a1.2,1.2,0,0,1-.649,1.568A1.223,1.223,0,0,1,73.852,97.456Z" fill="#fd604e"/>
      </g>
      <g id="Group_181" data-name="Group 181">
        <path id="Path_595" data-name="Path 595" d="M68.251,83.936a1.2,1.2,0,0,1-1.108-.741L61.719,70.1a1.2,1.2,0,1,1,2.216-.918l5.424,13.1a1.2,1.2,0,0,1-.649,1.568A1.219,1.219,0,0,1,68.251,83.936Z" fill="#fd604e"/>
      </g>
      <g id="Group_182" data-name="Group 182">
        <path id="Path_596" data-name="Path 596" d="M77.1,105.291a1.2,1.2,0,0,1-1.108-.741l-1.42-3.427a1.2,1.2,0,1,1,2.216-.919l1.42,3.427a1.2,1.2,0,0,1-.649,1.568A1.183,1.183,0,0,1,77.1,105.291Z" fill="#fd604e"/>
      </g>
      <g id="Group_183" data-name="Group 183">
        <circle id="Ellipse_80" data-name="Ellipse 80" cx="2.377" cy="2.377" r="2.377" transform="translate(76.921 107.03)" fill="#fd604e"/>
      </g>
    </g>
  </g>
  <g id="Group_196" data-name="Group 196">
    <g id="Group_190" data-name="Group 190">
      <g id="Group_186" data-name="Group 186">
        <path id="Path_597" data-name="Path 597" d="M34.9,36.1a1.2,1.2,0,0,1-.849-.352l-6.158-6.159a1.2,1.2,0,0,1,1.7-1.7l6.158,6.159A1.2,1.2,0,0,1,34.9,36.1Z" fill="#fd604e"/>
      </g>
      <g id="Group_187" data-name="Group 187">
        <path id="Path_598" data-name="Path 598" d="M49.106,50.308a1.2,1.2,0,0,1-.849-.352L38.236,39.934a1.2,1.2,0,1,1,1.7-1.7L49.954,48.259a1.2,1.2,0,0,1-.848,2.049Z" fill="#fd604e"/>
      </g>
      <g id="Group_188" data-name="Group 188">
        <path id="Path_599" data-name="Path 599" d="M25.363,26.564a1.2,1.2,0,0,1-.849-.352l-2.623-2.623a1.2,1.2,0,0,1,1.7-1.7l2.623,2.623a1.2,1.2,0,0,1-.848,2.049Z" fill="#fd604e"/>
      </g>
      <g id="Group_189" data-name="Group 189">
        <circle id="Ellipse_81" data-name="Ellipse 81" cx="2.377" cy="2.377" r="2.377" transform="translate(16.294 16.294)" fill="#fd604e"/>
      </g>
    </g>
    <g id="Group_195" data-name="Group 195">
      <g id="Group_191" data-name="Group 191">
        <path id="Path_600" data-name="Path 600" d="M87.281,88.482a1.2,1.2,0,0,1-.849-.352l-6.158-6.158a1.2,1.2,0,0,1,1.7-1.7l6.158,6.158a1.2,1.2,0,0,1-.848,2.049Z" fill="#fd604e"/>
      </g>
      <g id="Group_192" data-name="Group 192">
        <path id="Path_601" data-name="Path 601" d="M76.934,78.134a1.2,1.2,0,0,1-.849-.352L66.063,67.76a1.2,1.2,0,0,1,1.7-1.7L77.782,76.085a1.2,1.2,0,0,1-.848,2.049Z" fill="#fd604e"/>
      </g>
      <g id="Group_193" data-name="Group 193">
        <path id="Path_602" data-name="Path 602" d="M93.278,94.479a1.2,1.2,0,0,1-.849-.352L89.806,91.5a1.2,1.2,0,0,1,1.7-1.7l2.623,2.623a1.2,1.2,0,0,1-.848,2.049Z" fill="#fd604e"/>
      </g>
      <g id="Group_194" data-name="Group 194">
        <circle id="Ellipse_82" data-name="Ellipse 82" cx="2.377" cy="2.377" r="2.377" transform="translate(94.97 94.97)" fill="#fd604e"/>
      </g>
    </g>
  </g>
  <g id="Group_207" data-name="Group 207">
    <g id="Group_201" data-name="Group 201">
      <g id="Group_197" data-name="Group 197">
        <path id="Path_603" data-name="Path 603" d="M27.81,46.7a1.2,1.2,0,0,1-.459-.091L19.3,43.277a1.2,1.2,0,0,1,.918-2.218l8.047,3.332A1.2,1.2,0,0,1,27.81,46.7Z" fill="#fd604e"/>
      </g>
      <g id="Group_198" data-name="Group 198">
        <path id="Path_604" data-name="Path 604" d="M46.378,54.392a1.2,1.2,0,0,1-.459-.091l-13.1-5.424a1.2,1.2,0,0,1,.918-2.218l13.1,5.424a1.2,1.2,0,0,1-.459,2.309Z" fill="#fd604e"/>
      </g>
      <g id="Group_199" data-name="Group 199">
        <path id="Path_605" data-name="Path 605" d="M15.354,41.542a1.2,1.2,0,0,1-.459-.091l-3.427-1.419a1.2,1.2,0,0,1,.918-2.218l3.427,1.419a1.2,1.2,0,0,1-.459,2.309Z" fill="#fd604e"/>
      </g>
      <g id="Group_200" data-name="Group 200">
        <circle id="Ellipse_83" data-name="Ellipse 83" cx="2.377" cy="2.377" r="2.377" transform="translate(4.235 34.343)" fill="#fd604e"/>
      </g>
    </g>
    <g id="Group_206" data-name="Group 206">
      <g id="Group_202" data-name="Group 202">
        <path id="Path_606" data-name="Path 606" d="M96.255,75.052a1.2,1.2,0,0,1-.459-.091L87.75,71.628a1.2,1.2,0,0,1,.918-2.217l8.046,3.333a1.2,1.2,0,0,1-.459,2.308Z" fill="#fd604e"/>
      </g>
      <g id="Group_203" data-name="Group 203">
        <path id="Path_607" data-name="Path 607" d="M82.735,69.451a1.2,1.2,0,0,1-.459-.091l-13.1-5.424a1.2,1.2,0,0,1,.918-2.218l13.1,5.424a1.2,1.2,0,0,1-.459,2.309Z" fill="#fd604e"/>
      </g>
      <g id="Group_204" data-name="Group 204">
        <path id="Path_608" data-name="Path 608" d="M104.091,78.3a1.183,1.183,0,0,1-.459-.092l-3.428-1.42a1.2,1.2,0,0,1,.918-2.217l3.428,1.42a1.2,1.2,0,0,1-.459,2.309Z" fill="#fd604e"/>
      </g>
      <g id="Group_205" data-name="Group 205">
        <circle id="Ellipse_84" data-name="Ellipse 84" cx="2.377" cy="2.377" r="2.377" transform="translate(107.03 76.922)" fill="#fd604e"/>
      </g>
    </g>
  </g>
  <g id="Group_218" data-name="Group 218">
    <g id="Group_212" data-name="Group 212">
      <g id="Group_208" data-name="Group 208">
        <path id="Path_609" data-name="Path 609" d="M25.321,59.21h-8.71a1.2,1.2,0,0,1,0-2.4h8.71a1.2,1.2,0,1,1,0,2.4Z" fill="#fd604e"/>
      </g>
      <g id="Group_209" data-name="Group 209">
        <path id="Path_610" data-name="Path 610" d="M45.42,59.21H31.246a1.2,1.2,0,0,1,0-2.4H45.42a1.2,1.2,0,1,1,0,2.4Z" fill="#fd604e"/>
      </g>
      <g id="Group_210" data-name="Group 210">
        <path id="Path_611" data-name="Path 611" d="M11.841,59.21H8.131a1.2,1.2,0,0,1,0-2.4h3.71a1.2,1.2,0,0,1,0,2.4Z" fill="#fd604e"/>
      </g>
      <g id="Group_211" data-name="Group 211">
        <circle id="Ellipse_85" data-name="Ellipse 85" cx="2.377" cy="2.377" r="2.377" transform="translate(0 55.632)" fill="#fd604e"/>
      </g>
    </g>
    <g id="Group_217" data-name="Group 217">
      <g id="Group_213" data-name="Group 213">
        <path id="Path_612" data-name="Path 612" d="M99.406,59.21H90.7a1.2,1.2,0,0,1,0-2.4h8.709a1.2,1.2,0,0,1,0,2.4Z" fill="#fd604e"/>
      </g>
      <g id="Group_214" data-name="Group 214">
        <path id="Path_613" data-name="Path 613" d="M84.772,59.21H70.6a1.2,1.2,0,0,1,0-2.4H84.773a1.2,1.2,0,1,1,0,2.4Z" fill="#fd604e"/>
      </g>
      <g id="Group_215" data-name="Group 215">
        <path id="Path_614" data-name="Path 614" d="M107.887,59.21h-3.709a1.2,1.2,0,0,1,0-2.4h3.709a1.2,1.2,0,0,1,0,2.4Z" fill="#fd604e"/>
      </g>
      <g id="Group_216" data-name="Group 216">
        <circle id="Ellipse_86" data-name="Ellipse 86" cx="2.377" cy="2.377" r="2.377" transform="translate(111.265 55.632)" fill="#fd604e"/>
      </g>
    </g>
  </g>
  <g id="Group_229" data-name="Group 229">
    <g id="Group_223" data-name="Group 223">
      <g id="Group_219" data-name="Group 219">
        <path id="Path_615" data-name="Path 615" d="M19.763,75.052a1.2,1.2,0,0,1-.459-2.309l8.047-3.333a1.2,1.2,0,0,1,.918,2.218l-8.047,3.333A1.223,1.223,0,0,1,19.763,75.052Z" fill="#fd604e"/>
      </g>
      <g id="Group_220" data-name="Group 220">
        <path id="Path_616" data-name="Path 616" d="M33.283,69.451a1.2,1.2,0,0,1-.459-2.309l13.1-5.424a1.2,1.2,0,0,1,.918,2.218l-13.1,5.424A1.2,1.2,0,0,1,33.283,69.451Z" fill="#fd604e"/>
      </g>
      <g id="Group_221" data-name="Group 221">
        <path id="Path_617" data-name="Path 617" d="M11.928,78.3a1.2,1.2,0,0,1-.459-2.309l3.427-1.42a1.2,1.2,0,0,1,.918,2.217l-3.427,1.42A1.183,1.183,0,0,1,11.928,78.3Z" fill="#fd604e"/>
      </g>
      <g id="Group_222" data-name="Group 222">
        <circle id="Ellipse_87" data-name="Ellipse 87" cx="2.377" cy="2.377" r="2.377" transform="translate(4.235 76.922)" fill="#fd604e"/>
      </g>
    </g>
    <g id="Group_228" data-name="Group 228">
      <g id="Group_224" data-name="Group 224">
        <path id="Path_618" data-name="Path 618" d="M88.209,46.7a1.2,1.2,0,0,1-.459-2.309L95.8,41.059a1.2,1.2,0,0,1,.918,2.218l-8.046,3.332A1.2,1.2,0,0,1,88.209,46.7Z" fill="#fd604e"/>
      </g>
      <g id="Group_225" data-name="Group 225">
        <path id="Path_619" data-name="Path 619" d="M69.641,54.392a1.2,1.2,0,0,1-.459-2.309l13.1-5.424a1.2,1.2,0,0,1,.918,2.218L70.1,54.3A1.205,1.205,0,0,1,69.641,54.392Z" fill="#fd604e"/>
      </g>
      <g id="Group_226" data-name="Group 226">
        <path id="Path_620" data-name="Path 620" d="M100.663,41.542a1.2,1.2,0,0,1-.459-2.309l3.428-1.419a1.2,1.2,0,0,1,.918,2.218l-3.428,1.419A1.219,1.219,0,0,1,100.663,41.542Z" fill="#fd604e"/>
      </g>
      <g id="Group_227" data-name="Group 227">
        <circle id="Ellipse_88" data-name="Ellipse 88" cx="2.377" cy="2.377" r="2.377" transform="translate(107.03 34.343)" fill="#fd604e"/>
      </g>
    </g>
  </g>
  <g id="Group_240" data-name="Group 240">
    <g id="Group_234" data-name="Group 234">
      <g id="Group_230" data-name="Group 230">
        <path id="Path_621" data-name="Path 621" d="M28.736,88.482a1.2,1.2,0,0,1-.849-2.049l6.158-6.158a1.2,1.2,0,1,1,1.7,1.7L29.584,88.13A1.191,1.191,0,0,1,28.736,88.482Z" fill="#fd604e"/>
      </g>
      <g id="Group_231" data-name="Group 231">
        <path id="Path_622" data-name="Path 622" d="M39.085,78.134a1.2,1.2,0,0,1-.849-2.049L48.257,66.063a1.2,1.2,0,0,1,1.7,1.7L39.934,77.782A1.2,1.2,0,0,1,39.085,78.134Z" fill="#fd604e"/>
      </g>
      <g id="Group_232" data-name="Group 232">
        <path id="Path_623" data-name="Path 623" d="M22.74,94.479a1.2,1.2,0,0,1-.849-2.049l2.623-2.623a1.2,1.2,0,0,1,1.7,1.7l-2.623,2.623A1.192,1.192,0,0,1,22.74,94.479Z" fill="#fd604e"/>
      </g>
      <g id="Group_233" data-name="Group 233">
        <circle id="Ellipse_89" data-name="Ellipse 89" cx="2.377" cy="2.377" r="2.377" transform="translate(16.294 94.97)" fill="#fd604e"/>
      </g>
    </g>
    <g id="Group_239" data-name="Group 239">
      <g id="Group_235" data-name="Group 235">
        <path id="Path_624" data-name="Path 624" d="M81.123,36.1a1.2,1.2,0,0,1-.849-2.049l6.158-6.159a1.2,1.2,0,0,1,1.7,1.7l-6.158,6.159A1.192,1.192,0,0,1,81.123,36.1Z" fill="#fd604e"/>
      </g>
      <g id="Group_236" data-name="Group 236">
        <path id="Path_625" data-name="Path 625" d="M66.911,50.308a1.2,1.2,0,0,1-.849-2.049L76.084,38.237a1.2,1.2,0,1,1,1.7,1.7L67.76,49.956A1.2,1.2,0,0,1,66.911,50.308Z" fill="#fd604e"/>
      </g>
      <g id="Group_237" data-name="Group 237">
        <path id="Path_626" data-name="Path 626" d="M90.655,26.564a1.2,1.2,0,0,1-.849-2.049l2.623-2.623a1.2,1.2,0,0,1,1.7,1.7L91.5,26.212A1.2,1.2,0,0,1,90.655,26.564Z" fill="#fd604e"/>
      </g>
      <g id="Group_238" data-name="Group 238">
        <circle id="Ellipse_90" data-name="Ellipse 90" cx="2.377" cy="2.377" r="2.377" transform="translate(94.97 16.294)" fill="#fd604e"/>
      </g>
    </g>
  </g>
  <g id="Group_251" data-name="Group 251">
    <g id="Group_245" data-name="Group 245">
      <g id="Group_241" data-name="Group 241">
        <path id="Path_627" data-name="Path 627" d="M42.167,97.456A1.2,1.2,0,0,1,41.059,95.8l3.333-8.047a1.2,1.2,0,1,1,2.216.919l-3.333,8.046A1.2,1.2,0,0,1,42.167,97.456Z" fill="#fd604e"/>
      </g>
      <g id="Group_242" data-name="Group 242">
        <path id="Path_628" data-name="Path 628" d="M47.768,83.936a1.2,1.2,0,0,1-1.108-1.659l5.424-13.1A1.2,1.2,0,1,1,54.3,70.1l-5.424,13.1A1.2,1.2,0,0,1,47.768,83.936Z" fill="#fd604e"/>
      </g>
      <g id="Group_243" data-name="Group 243">
        <path id="Path_629" data-name="Path 629" d="M38.922,105.291a1.2,1.2,0,0,1-1.108-1.659l1.419-3.427a1.2,1.2,0,1,1,2.216.918L40.03,104.55A1.2,1.2,0,0,1,38.922,105.291Z" fill="#fd604e"/>
      </g>
      <g id="Group_244" data-name="Group 244">
        <circle id="Ellipse_91" data-name="Ellipse 91" cx="2.377" cy="2.377" r="2.377" transform="translate(34.343 107.03)" fill="#fd604e"/>
      </g>
    </g>
    <g id="Group_250" data-name="Group 250">
      <g id="Group_246" data-name="Group 246">
        <path id="Path_630" data-name="Path 630" d="M70.519,29.01a1.2,1.2,0,0,1-1.108-1.659l3.333-8.046a1.2,1.2,0,1,1,2.216.919l-3.333,8.047A1.2,1.2,0,0,1,70.519,29.01Z" fill="#fd604e"/>
      </g>
      <g id="Group_247" data-name="Group 247">
        <path id="Path_631" data-name="Path 631" d="M62.827,47.579a1.2,1.2,0,0,1-1.108-1.659l5.424-13.1a1.2,1.2,0,1,1,2.216.918l-5.424,13.1A1.2,1.2,0,0,1,62.827,47.579Z" fill="#fd604e"/>
      </g>
      <g id="Group_248" data-name="Group 248">
        <path id="Path_632" data-name="Path 632" d="M75.677,16.556A1.2,1.2,0,0,1,74.569,14.9l1.42-3.428a1.2,1.2,0,1,1,2.216.919l-1.42,3.428A1.2,1.2,0,0,1,75.677,16.556Z" fill="#fd604e"/>
      </g>
      <g id="Group_249" data-name="Group 249">
        <circle id="Ellipse_92" data-name="Ellipse 92" cx="2.377" cy="2.377" r="2.377" transform="translate(76.921 4.235)" fill="#fd604e"/>
      </g>
    </g>
  </g>
</svg>
